<!DOCTYPE svg PUBLIC "-//W3C//DTD SVG 1.1//EN" "http://www.w3.org/Graphics/SVG/1.1/DTD/svg11.dtd">
<!-- Uploaded to: SVG Repo, www.svgrepo.com, Transformed by: SVG Repo Mixer Tools -->
<svg fill="#ffff" width="800px" height="800px" viewBox="0 0 256 256" id="Flat" xmlns="http://www.w3.org/2000/svg" stroke="#ffff">
<g id="SVGRepo_bgCarrier" stroke-width="0"/>
<g id="SVGRepo_tracerCarrier" stroke-linecap="round" stroke-linejoin="round"/>
<g id="SVGRepo_iconCarrier"> <path d="M128,24A104,104,0,1,0,232,128,104.11791,104.11791,0,0,0,128,24Zm12,152h-4v8a8,8,0,0,1-16,0v-8H104a8,8,0,0,1,0-16h36a12,12,0,0,0,0-24H116a28,28,0,0,1,0-56h4V72a8,8,0,0,1,16,0v8h16a8,8,0,0,1,0,16H116a12,12,0,0,0,0,24h24a28,28,0,0,1,0,56Z"/> </g>
</svg>